<svg viewBox="0 0 85 71" version="1.1" xmlns="http://www.w3.org/2000/svg" xmlns:xlink="http://www.w3.org/1999/xlink">
<g class="Canvas" fill="none">
<g class="fake logo">
<g class="Shape">
<path d="M 5.18494 26L 12 20.4972L 18.8151 26L 24 20.7672L 13.2167 0.676004C 12.733 -0.225335 11.267 -0.225335 10.7833 0.676004L 0 20.7672L 5.18494 26Z" transform="translate(30 0)" fill="#111111"/>
</g>
<g class="Shape_2">
<path d="M 75.83 45.8686L 51.6053 0L 45.1415 6.62958L 38 0.770372L 30.8585 6.62958L 24.3947 0L 0.16995 45.8686C -0.0664507 46.3169 -0.0554589 46.8582 0.198126 47.2952C 0.452387 47.7322 0.911439 48 1.4076 48L 74.5924 48C 75.0886 48 75.5476 47.7322 75.8019 47.2952C 76.0555 46.8582 76.0665 46.3169 75.83 45.8686Z" transform="translate(4 23)" fill="#111111"/>
</g>
<g class="Shape_3">
<path d="M 30 12.3799L 22.2626 0.635075C 21.9928 0.226511 21.5122 -0.0257198 21.0508 0.0020861C 20.5653 0.0166721 20.1225 0.283489 19.878 0.707351L 0.191654 34.8599C -0.0623847 35.3004 -0.0637627 35.8438 0.186845 36.2857C 0.437453 36.7276 0.90298 37 1.40626 37L 16.822 37L 30 12.3799Z" transform="translate(0 3)" fill="#905DEE"/>
</g>
<g class="Shape_4">
<path d="M 29.8083 34.8598L 10.1218 0.705378C 9.87741 0.281508 9.43454 0.0146767 8.94912 7.57049e-05C 8.48703 -0.0047913 8.0064 0.22521 7.73724 0.633099L 0 12.3789L 13.1779 37L 28.5937 37C 29.097 37 29.5625 36.7276 29.8131 36.2857C 30.0638 35.8437 30.0624 35.3003 29.8083 34.8598Z" transform="translate(55 3)" fill="#905DEE"/>
</g>
</g>
</g>
</svg>

